<?xml version="1.0" encoding="utf-8"?>
<!-- Generator: Adobe Illustrator 16.0.0, SVG Export Plug-In . SVG Version: 6.00 Build 0)  -->
<!DOCTYPE svg PUBLIC "-//W3C//DTD SVG 1.1//EN" "http://www.w3.org/Graphics/SVG/1.1/DTD/svg11.dtd">
<svg version="1.1" id="圖層_1" xmlns="http://www.w3.org/2000/svg" xmlns:xlink="http://www.w3.org/1999/xlink" x="0px" y="0px"
	 width="530px" height="142.89px" viewBox="0 0 530 142.89" enable-background="new 0 0 530 142.89" xml:space="preserve">
<path fill="#8E7631" d="M520.363,104.793c-0.675,0.057-1.328,0.306-1.817,0.684c-0.379,0.293-0.856,0.418-1.336,0.418
	c-12.615,0.001-58.632,0.005-59.809,0c-1.161-0.006-2.123-0.548-2.097-1.709c0.037-1.619-0.795-3.412-1.453-5.031
	c-4.043-9.971-9.593-22.391-13.264-25.448c-3.729-3.108-41.412-19.795-44.209-21.183c-4.276-2.121-4.527-4.278-4.943-7.854
	c-0.28-2.412-0.63-5.415-2.503-8.849c-4.564-8.368-14.662-15.852-21.229-17.591c-3.744-0.99-5.658-0.124-7.685,0.794
	c-1.661,0.753-3.38,1.531-6.685,1.531c-3.603,0-5.42-7.572-6.547-8.793c-1.1-1.193-2.347-2.544-5.323-2.544
	c-4.31,0-8.987,3.541-9.78,4.009c-2.224,1.31-5.447,7.525-9.66,7.311c-5.536-0.283-11.262-0.574-15.2,2.272
	c-2.509,1.811-7.141,7.039-12.503,13.092c-8.007,9.037-20.107,22.694-24.568,23.109c-2.848,0.258-4.148-1.592-6.042-4.643
	c-1.847-2.978-4.148-6.681-9.283-5.544c-4.409,0.98-50.582,30.14-54.771,31.337c-4.795,1.366-8.47-1.076-11.712-3.234
	c-2.367-1.574-7.928-3.059-10.289-2.788c-3.325,0.383-5.431,3.898-8.098,8.347c-1.876,3.133-4.003,6.682-6.918,9.72
	c-1.793,1.869-9.668,4.631-15.996,6.85c-2.928,1.027-5.286,1.869-7.171,2.591c-7.266,2.78-14.981,4.188-22.761,4.223
	c-18.361,0.082-95.269-0.036-108.353-0.058c-0.934-0.001-1.594,0.184-2.362-0.349c-0.948-0.656-2-0.962-3.072-0.52
	c-0.896,0.37-1.441,1.178-1.706,2.124c-0.543,1.946,0.395,3.679,2.297,3.679c0.646,0,1.812-0.205,2.297-0.55
	c0.503-0.359,1.071-0.615,1.689-0.615h508.183c1.231,0,2.425,0.325,3.55,0.825c0.357,0.158,0.751,0.247,1.168,0.247
	c1.865,0,3.324-1.739,2.843-3.685C522.938,105.727,521.636,104.686,520.363,104.793"/>
<path fill="#8E7631" d="M177.841,112.965c0-0.199,0.12-0.259,0.319-0.239c0.658,0.06,2.331,0.12,3.984,0.12h3.247
	c1.892,0,3.227-0.061,3.904-0.12c0.2-0.02,0.379,0,0.359,0.199c-0.1,1.017-0.18,2.132-0.259,3.167
	c-0.02,0.279-0.359,0.26-0.399,0.04c-0.278-1.573-0.816-2.391-1.793-2.391h-2.629v9.064c0,3.267,0.04,3.267,1.872,3.426
	c-0.139,0.478-0.238,0.638-0.518,0.638h-5.099c0.08-0.398,0.14-0.598,0.399-0.638c1.354-0.199,1.414-0.219,1.414-2.987v-9.503
	h-2.749c-0.776,0-1.374,0.876-1.793,2.391c-0.099,0.358-0.399,0.239-0.399,0C177.701,115.097,177.841,113.982,177.841,112.965"/>
<path fill="#8E7631" d="M195.53,127.048c-0.797,0-1.635-0.179-1.595-1.414c-0.358,0.637-1.174,1.396-2.609,1.396
	c-1.494,0-2.47-0.759-2.47-2.253c0-1.074,1.355-3.245,5.1-3.245v-1.574c0-1.017-0.519-1.633-1.574-1.633
	c-0.538,0-0.936,0.157-1.275,0.656c-0.299,0.438-0.219,0.798-0.219,1.515c-0.16,0.159-0.458,0.277-0.837,0.277
	c-0.379,0-0.936-0.277-0.836-1.074c0.119-0.996,1.574-2.093,3.207-2.093c2.231,0,3.406,0.996,3.406,2.49
	c0,0.856-0.079,1.813-0.079,3.486c0,2.391-0.219,3.008,0.976,2.789c0.219-0.039,0.238,0.179,0.08,0.298
	C196.426,126.95,196.067,127.048,195.53,127.048 M193.956,122.168c-2.411,0-3.188,1.354-3.188,2.43c0,0.639,0.438,1.235,1.176,1.295
	c0.857,0.061,1.454-0.179,1.991-0.736C193.935,124.22,193.956,123.184,193.956,122.168"/>
<path fill="#8E7631" d="M197.997,118.364c0.877-0.319,1.853-0.678,2.65-0.917c0.199-0.06,0.219,0.021,0.199,0.199
	c-0.06,0.917-0.099,1.534-0.099,3.486v2.292c0,2.788,0.059,2.847,1.135,2.908c-0.14,0.397-0.159,0.536-0.418,0.536h-3.705
	c0.079-0.419,0.099-0.497,0.338-0.536c0.876-0.141,0.857-0.2,0.857-2.371v-4.563c0-0.438-0.139-0.736-0.618-0.736h-0.319
	C197.799,118.663,197.719,118.463,197.997,118.364 M198.535,114.738c0-0.677,0.538-1.216,1.216-1.216
	c0.657,0,1.195,0.539,1.195,1.216c0,0.678-0.538,1.216-1.195,1.216C199.073,115.954,198.535,115.416,198.535,114.738"/>
<path fill="#8E7631" d="M216.922,117.726c-0.12,0.419-0.16,0.538-0.419,0.538c-0.398,0-0.458,0.159-0.637,0.638l-2.869,7.847
	c-0.099,0.301-0.359,0.32-0.917,0.32l-2.55-6.813l-2.33,6.474c-0.099,0.299-0.338,0.339-0.856,0.339l-2.929-7.929
	c-0.259-0.697-0.457-0.876-1.115-0.876c0.08-0.399,0.12-0.538,0.379-0.538h3.665c-0.12,0.419-0.2,0.518-0.399,0.538
	c-0.776,0.04-0.816,0.139-0.537,0.956l1.832,5.278l2.271-6.514c0.12-0.319,0.558-0.358,0.976-0.379l2.51,6.932l1.913-5.317
	c0.299-0.836,0.199-0.956-0.877-0.956c0.08-0.399,0.12-0.538,0.379-0.538H216.922z"/>
<path fill="#8E7631" d="M224.21,127.048c-0.797,0-1.635-0.179-1.595-1.414c-0.358,0.637-1.174,1.396-2.609,1.396
	c-1.494,0-2.47-0.759-2.47-2.253c0-1.074,1.355-3.245,5.1-3.245v-1.574c0-1.017-0.518-1.633-1.574-1.633
	c-0.537,0-0.936,0.157-1.275,0.656c-0.299,0.438-0.219,0.798-0.219,1.515c-0.16,0.159-0.458,0.277-0.836,0.277
	c-0.379,0-0.936-0.277-0.837-1.074c0.119-0.996,1.574-2.093,3.207-2.093c2.231,0,3.406,0.996,3.406,2.49
	c0,0.856-0.079,1.813-0.079,3.486c0,2.391-0.219,3.008,0.976,2.789c0.219-0.039,0.238,0.179,0.08,0.298
	C225.106,126.95,224.747,127.048,224.21,127.048 M222.636,122.168c-2.411,0-3.188,1.354-3.188,2.43c0,0.639,0.438,1.235,1.176,1.295
	c0.857,0.061,1.454-0.179,1.991-0.736C222.615,124.22,222.636,123.184,222.636,122.168"/>
<path fill="#8E7631" d="M226.818,126.332c0.678-0.119,0.737-0.279,0.737-2.371v-4.642c0-0.218-0.159-0.518-0.598-0.518h-0.298
	c-0.259,0-0.358-0.18-0.04-0.298c0.877-0.339,1.753-0.737,2.51-1.056c0.139-0.061,0.259,0.02,0.239,0.179
	c-0.04,0.318-0.02,1.314-0.02,1.853c0.976-1.255,1.674-1.892,2.709-1.892c1.972,0,3.088,1.314,3.088,3.466v2.35
	c0,2.789,0,2.868,0.995,2.929c-0.139,0.398-0.158,0.538-0.417,0.538h-3.467c0.08-0.419,0.1-0.498,0.339-0.538
	c0.677-0.101,0.757-0.239,0.757-2.092v-1.713c0-1.594-0.099-3.665-1.633-3.665c-1.056,0-1.534,0.398-2.371,1.095v3.446
	c0,2.789-0.02,2.868,1.016,2.929c-0.139,0.398-0.16,0.538-0.419,0.538h-3.465C226.56,126.451,226.579,126.372,226.818,126.332"/>
<path fill="#8E7631" d="M250.441,127.048c-4.303,0-6.952-2.828-6.952-7.051c0-4.124,2.988-7.352,6.792-7.352
	c2.71,0,3.626,0.658,4.661,0.598c0.16,0,0.2,0,0.22,0.2l0.139,2.709c0.02,0.318-0.318,0.357-0.399,0.119
	c-0.617-1.772-1.932-2.769-4.501-2.769c-2.889,0-4.821,2.809-4.821,6.254c0,3.447,1.953,5.817,5.219,5.817
	c2.272,0,3.606-0.876,4.443-1.813c0.219-0.239,0.497-0.08,0.358,0.219C254.942,125.435,253.389,127.048,250.441,127.048"/>
<path fill="#8E7631" d="M256.954,118.284c0.896-0.179,1.812-0.379,2.59-0.617c0.199-0.061,0.238,0.039,0.219,0.198
	c-0.12,0.897-0.101,3.407-0.101,4.88c0,2.232,0.399,3.208,2.132,2.989c0.638-0.08,1.315-0.398,1.754-0.816v-5.697
	c0-0.419-0.141-0.638-0.578-0.638h-0.319c-0.239,0-0.279-0.238,0-0.299c0.876-0.179,1.753-0.379,2.549-0.617
	c0.2-0.061,0.24,0.02,0.22,0.198c-0.1,0.837-0.118,4.683-0.118,7.451c0,0.876,0.179,1.075,1.015,0.995
	c0.22-0.019,0.279,0.12,0.101,0.28c-0.319,0.297-0.838,0.458-1.335,0.458c-0.697,0-1.573-0.101-1.555-1.654
	c-0.398,0.718-1.553,1.654-2.908,1.654c-1.952,0-2.748-1.177-2.748-3.985v-3.863c0-0.399-0.16-0.618-0.599-0.618h-0.318
	C256.734,118.583,256.655,118.344,256.954,118.284"/>
<path fill="#8E7631" d="M267.809,113.483c0.876-0.358,1.832-0.677,2.629-0.916c0.199-0.06,0.239,0.02,0.22,0.18
	c-0.119,0.916-0.119,3.765-0.119,5.676v4.98c0,2.789,0.039,2.869,1.135,2.929c-0.119,0.398-0.159,0.538-0.418,0.538h-3.666
	c0.08-0.419,0.101-0.498,0.339-0.538c0.697-0.1,0.817-0.219,0.817-2.37v-9.442c0-0.398-0.12-0.737-0.618-0.737h-0.318
	C267.589,113.782,267.51,113.603,267.809,113.483"/>
<path fill="#8E7631" d="M278.743,126.092c-0.357,0.397-1.194,0.977-2.311,0.977c-1.374,0-2.231-0.718-2.231-2.729v-5.577h-1.493
	l0.06-0.259c0.02-0.119,0.16-0.26,0.299-0.28c1.573-0.218,1.912-1.513,2.29-2.847c0.04-0.141,0.658-0.08,0.658,0.039v2.33h2.789
	c-0.101,0.657-0.16,1.017-0.638,1.017h-2.151v5.079c0,1.953,0.617,2.251,1.375,2.251c0.397,0,0.816-0.079,1.195-0.259
	C278.764,125.754,278.903,125.914,278.743,126.092"/>
<path fill="#8E7631" d="M279.579,118.284c0.896-0.179,1.812-0.379,2.59-0.617c0.198-0.061,0.238,0.039,0.219,0.198
	c-0.119,0.897-0.101,3.407-0.101,4.88c0,2.232,0.399,3.208,2.132,2.989c0.638-0.08,1.315-0.398,1.753-0.816v-5.697
	c0-0.419-0.139-0.638-0.577-0.638h-0.319c-0.238,0-0.278-0.238,0-0.299c0.877-0.179,1.753-0.379,2.55-0.617
	c0.2-0.061,0.239,0.02,0.22,0.198c-0.1,0.837-0.119,4.683-0.119,7.451c0,0.876,0.179,1.075,1.016,0.995
	c0.219-0.019,0.278,0.12,0.1,0.28c-0.318,0.297-0.837,0.458-1.335,0.458c-0.697,0-1.573-0.101-1.554-1.654
	c-0.398,0.718-1.553,1.654-2.908,1.654c-1.952,0-2.748-1.177-2.748-3.985v-3.863c0-0.399-0.16-0.618-0.599-0.618h-0.318
	C279.36,118.583,279.28,118.344,279.579,118.284"/>
<path fill="#8E7631" d="M290.574,126.311c0.577-0.1,0.637-0.238,0.637-2.35v-4.642c0-0.22-0.159-0.519-0.598-0.519h-0.299
	c-0.259,0-0.358-0.179-0.04-0.298c0.877-0.339,1.754-0.737,2.51-1.056c0.14-0.061,0.26,0.02,0.239,0.179
	c-0.04,0.319-0.02,1.414-0.02,1.952c0.577-1.096,1.254-2.012,2.311-2.012c0.816,0,1.415,0.419,1.634,0.856
	c0.198,0.398,0.079,0.977-0.797,1.494c-0.499-0.538-0.977-0.897-1.455-0.877c-0.657,0.02-1.016,0.279-1.692,1.016v3.348
	c0,2.789,0.04,2.867,1.115,2.929c-0.14,0.396-0.159,0.537-0.418,0.537h-3.467C290.314,126.451,290.334,126.351,290.574,126.311"/>
<path fill="#8E7631" d="M304.477,127.048c-0.797,0-1.633-0.179-1.596-1.414c-0.357,0.637-1.173,1.396-2.607,1.396
	c-1.494,0-2.47-0.759-2.47-2.253c0-1.074,1.354-3.245,5.099-3.245v-1.574c0-1.017-0.518-1.633-1.573-1.633
	c-0.538,0-0.937,0.157-1.275,0.656c-0.299,0.438-0.219,0.798-0.219,1.515c-0.161,0.159-0.458,0.277-0.837,0.277
	s-0.936-0.277-0.836-1.074c0.119-0.996,1.573-2.093,3.207-2.093c2.231,0,3.405,0.996,3.405,2.49c0,0.856-0.079,1.813-0.079,3.486
	c0,2.391-0.219,3.008,0.977,2.789c0.219-0.039,0.238,0.179,0.08,0.298C305.373,126.95,305.015,127.048,304.477,127.048
	 M302.902,122.168c-2.41,0-3.188,1.354-3.188,2.43c0,0.639,0.439,1.235,1.177,1.295c0.857,0.061,1.454-0.179,1.99-0.736
	C302.881,124.22,302.902,123.184,302.902,122.168"/>
<path fill="#8E7631" d="M306.965,113.483c0.877-0.358,1.833-0.677,2.63-0.916c0.199-0.06,0.239,0.02,0.219,0.18
	c-0.119,0.916-0.119,3.765-0.119,5.676v4.98c0,2.789,0.04,2.869,1.136,2.929c-0.119,0.398-0.159,0.538-0.418,0.538h-3.665
	c0.079-0.419,0.1-0.498,0.338-0.538c0.697-0.1,0.816-0.219,0.816-2.37v-9.442c0-0.398-0.119-0.737-0.617-0.737h-0.319
	C306.747,113.782,306.667,113.603,306.965,113.483"/>
<path fill="#8E7631" d="M318.198,126.231c1.076-0.139,1.296-0.677,1.494-2.448l1.016-9.363c0.08-0.777-0.06-0.876-1.096-0.938
	c-0.318-0.019-0.338-0.197-0.179-0.637h2.849l4.581,10.559c0.021,0.06,0.101,0.06,0.12,0l4.123-10.559h3.247
	c-0.119,0.479-0.139,0.637-0.418,0.637c-0.479,0-0.996,0.102-0.917,0.978c0.438,4.78,0.837,9.542,1.156,10.777
	c0.219,0.836,0.519,0.896,1.454,0.994c-0.16,0.479-0.18,0.639-0.519,0.639h-4.461c0.078-0.479,0.158-0.617,0.418-0.639
	c0.996-0.079,1.114-0.258,1.056-0.936l-0.877-9.661l-4.383,11.334c-0.061,0.18-0.557,0.2-0.637,0l-4.602-10.557
	c-0.418,3.805-0.816,7.091-0.877,7.788c-0.14,1.613-0.04,1.773,1.653,2.031c-0.159,0.479-0.179,0.639-0.438,0.639h-4.184
	C317.86,126.471,317.9,126.271,318.198,126.231"/>
<path fill="#8E7631" d="M338.733,122.069c-0.02,2.131,1.156,3.825,2.988,3.825c1.176,0,1.813-0.439,2.45-0.957
	c0.2-0.159,0.339-0.02,0.239,0.199c-0.378,0.776-1.434,1.933-3.286,1.933c-2.471,0-4.283-1.614-4.283-4.701
	c0-2.351,1.872-4.801,4.023-4.801c1.693,0,2.311,0.518,2.809,0.996c0.578,0.558,0.915,1.493,1.017,2.67
	c0.04,0.478,0,0.676-0.459,0.696C341.901,122.029,340.109,122.008,338.733,122.069 M342.777,121.073
	c0-1.554-0.657-2.789-1.854-2.789c-1.354,0-2.21,1.374-2.21,3.107L342.777,121.073z"/>
<path fill="#8E7631" d="M346.223,126.332c0.717-0.119,0.757-0.239,0.757-2.371v-4.642c0-0.218-0.159-0.518-0.598-0.518h-0.299
	c-0.259,0-0.358-0.18-0.04-0.298c0.877-0.339,1.753-0.737,2.51-1.056c0.14-0.061,0.259,0.02,0.239,0.179
	c-0.04,0.318-0.02,1.334-0.02,1.872c0.558-0.855,1.454-1.893,2.41-1.893c1.394,0,2.47,0.658,2.809,1.913
	c0.597-0.938,1.414-1.913,2.51-1.913c1.893,0,2.928,1.256,2.928,3.407v2.39c0,2.789,0,2.868,0.977,2.929
	c-0.14,0.398-0.159,0.538-0.418,0.538h-3.446c0.078-0.419,0.1-0.498,0.338-0.538c0.656-0.101,0.758-0.239,0.758-2.092v-1.713
	c0-1.554,0.039-3.646-1.515-3.646c-0.976,0-1.194,0.279-2.052,1.116v1.016v2.39c0,2.789-0.02,2.868,0.956,2.929
	c-0.139,0.398-0.158,0.538-0.418,0.538h-3.346c0.078-0.419,0.06-0.498,0.298-0.538c0.638-0.101,0.718-0.219,0.718-2.092v-1.713
	c0-1.554,0.08-3.646-1.475-3.646c-0.677,0-1.176,0.358-2.031,1.096v3.426c0,2.789-0.021,2.868,0.956,2.929
	c-0.14,0.398-0.16,0.538-0.419,0.538h-3.426C345.963,126.451,345.982,126.372,346.223,126.332"/>
<path fill="#8E7631" d="M361.458,122.289c0-2.591,1.893-4.763,4.563-4.763c2.63,0,4.362,2.013,4.362,4.763
	c0,2.59-1.872,4.76-4.542,4.76C362.952,127.048,361.458,124.837,361.458,122.289 M368.45,122.566c0-2.131-0.995-4.281-2.708-4.281
	c-1.833,0-2.371,1.593-2.371,3.724c0,2.092,0.976,4.263,2.59,4.263C367.873,126.271,368.45,124.878,368.45,122.566"/>
<path fill="#8E7631" d="M371.976,126.311c0.578-0.1,0.638-0.238,0.638-2.35v-4.642c0-0.22-0.158-0.519-0.598-0.519h-0.299
	c-0.259,0-0.358-0.179-0.04-0.298c0.877-0.339,1.753-0.737,2.51-1.056c0.14-0.061,0.26,0.02,0.239,0.179
	c-0.04,0.319-0.02,1.414-0.02,1.952c0.577-1.096,1.254-2.012,2.31-2.012c0.817,0,1.415,0.419,1.635,0.856
	c0.198,0.398,0.079,0.977-0.797,1.494c-0.499-0.538-0.977-0.897-1.455-0.877c-0.656,0.02-1.016,0.279-1.692,1.016v3.348
	c0,2.789,0.04,2.867,1.115,2.929c-0.14,0.396-0.159,0.537-0.418,0.537h-3.467C371.717,126.451,371.736,126.351,371.976,126.311"/>
<path fill="#8E7631" d="M388.468,117.726c-0.12,0.419-0.18,0.538-0.419,0.538c-0.338,0-0.519,0.159-0.717,0.638l-3.028,7.011
	c-0.518,1.195-0.916,2.511-1.474,3.525c-0.538,0.977-0.697,1.395-1.234,1.933c-0.339,0.339-0.996,0.737-1.814,0.737
	c-0.377,0-0.676-0.358-0.855-1.693c1.454,0,2.23-0.238,3.107-1.434c0.259-0.359,0.618-1.255,0.955-2.052l-3.186-7.789
	c-0.279-0.697-0.379-0.876-1.116-0.876c0.08-0.399,0.119-0.538,0.379-0.538h3.944c-0.14,0.419-0.18,0.538-0.379,0.538
	c-1.017,0-1.136,0.159-0.817,0.956l2.212,5.538l2.311-5.598c0.359-0.856,0.159-0.896-0.916-0.896
	c0.079-0.418,0.119-0.538,0.378-0.538H388.468z"/>
<path fill="#8E7631" d="M404.322,116.153c0,2.07-1.454,2.986-2.948,3.287c1.853,0.179,4.044,1.234,4.044,3.524
	c0,2.611-1.973,3.905-4.921,3.905c-1.115,0-2.19-0.179-3.306-0.179c-0.599,0-0.957,0.059-1.556,0.179
	c-0.179,0.04-0.237-0.2-0.099-0.299c0.578-0.438,0.717-0.618,0.717-2.788v-7.432c0-2.391-0.02-2.549-0.497-2.748
	c-0.379-0.159-0.438-0.26-0.419-0.758c0.598,0.101,1.156,0.14,1.972,0.101c0.917-0.04,1.853-0.101,2.75-0.101
	C403.166,112.845,404.322,114.758,404.322,116.153 M398.167,119.139h0.657c2.649,0,3.485-1.135,3.485-2.589
	c0-1.554-0.598-2.828-2.589-2.828c-0.599,0-1.275,0.08-1.554,0.14V119.139z M398.864,120.056h-0.697v5.638
	c0.657,0.16,1.354,0.239,2.031,0.239c2.231,0,3.148-0.917,3.148-2.929C403.347,120.316,401.215,120.056,398.864,120.056"/>
<path fill="#8E7631" d="M413.683,127.048c-0.797,0-1.634-0.179-1.595-1.414c-0.358,0.637-1.174,1.396-2.608,1.396
	c-1.494,0-2.471-0.759-2.471-2.253c0-1.074,1.355-3.245,5.1-3.245v-1.574c0-1.017-0.518-1.633-1.573-1.633
	c-0.538,0-0.937,0.157-1.275,0.656c-0.299,0.438-0.219,0.798-0.219,1.515c-0.16,0.159-0.458,0.277-0.837,0.277
	s-0.936-0.277-0.837-1.074c0.12-0.996,1.574-2.093,3.208-2.093c2.23,0,3.405,0.996,3.405,2.49c0,0.856-0.079,1.813-0.079,3.486
	c0,2.391-0.219,3.008,0.978,2.789c0.218-0.039,0.237,0.179,0.078,0.298C414.579,126.95,414.221,127.048,413.683,127.048
	 M412.108,122.168c-2.41,0-3.188,1.354-3.188,2.43c0,0.639,0.439,1.235,1.177,1.295c0.857,0.061,1.454-0.179,1.991-0.736
	C412.088,124.22,412.108,123.184,412.108,122.168"/>
<path fill="#8E7631" d="M416.291,126.332c0.678-0.119,0.737-0.279,0.737-2.371v-4.642c0-0.218-0.16-0.518-0.599-0.518h-0.298
	c-0.259,0-0.358-0.18-0.04-0.298c0.877-0.339,1.754-0.737,2.51-1.056c0.14-0.061,0.26,0.02,0.239,0.179
	c-0.04,0.318-0.02,1.314-0.02,1.853c0.976-1.255,1.673-1.892,2.708-1.892c1.973,0,3.089,1.314,3.089,3.466v2.35
	c0,2.789,0,2.868,0.995,2.929c-0.14,0.398-0.159,0.538-0.418,0.538h-3.467c0.081-0.419,0.1-0.498,0.34-0.538
	c0.677-0.101,0.757-0.239,0.757-2.092v-1.713c0-1.594-0.1-3.665-1.634-3.665c-1.056,0-1.534,0.398-2.37,1.095v3.446
	c0,2.789-0.021,2.868,1.016,2.929c-0.14,0.398-0.16,0.538-0.419,0.538h-3.465C416.032,126.451,416.052,126.372,416.291,126.332"/>
<path fill="#8E7631" d="M435.691,126.87c-0.219,0-0.558,0.04-1.295,0c-0.458-0.021-1.414-0.061-2.091-0.896l-2.948-3.646
	c-0.02-0.04-0.04-0.061-0.061-0.08v1.156c0,2.789,0,2.868,1.036,2.928c-0.12,0.398-0.16,0.538-0.419,0.538h-3.505
	c0.079-0.419,0.1-0.498,0.338-0.538c0.638-0.1,0.757-0.259,0.757-2.37v-9.443c0-0.397-0.119-0.736-0.618-0.736h-0.318
	c-0.219,0-0.299-0.18,0-0.299c0.877-0.338,1.833-0.678,2.63-0.915c0.199-0.062,0.238,0.019,0.219,0.179
	c-0.119,0.916-0.119,3.764-0.119,5.677v3.705c0.021-0.02,0.041-0.06,0.08-0.1l2.151-2.031c0.777-0.718,1.075-1.136,1.056-1.336
	c-0.039-0.337-0.22-0.398-0.717-0.398h-0.398c0.139-0.397,0.139-0.518,0.398-0.518h3.585c-0.08,0.419-0.18,0.518-0.358,0.518
	c-1.016,0-1.435,0.897-4.104,3.287c1.594,1.952,3.545,4.423,4.801,5.04C436.029,126.709,435.911,126.87,435.691,126.87"/>
<path fill="#FFFFFF" d="M416.671,108.366c0.199-0.426,0.659-0.957,1.026-1.382c0.318-0.366,0.62-0.714,0.803-1.02
	c1.767-2.403,1.818-5.339,1.868-8.179c0.017-0.945,0.034-1.921,0.116-2.85c0.002-0.02,0.002-0.039-0.002-0.058
	c-0.047-0.417-0.273-0.914-1.077-0.914c-0.633,0-1.497,0.307-2.413,0.631c-1.018,0.361-2.069,0.734-2.895,0.734
	c-0.28,0-0.521-0.046-0.71-0.137c-0.011-0.005-0.021-0.009-0.032-0.013c-0.219-0.067-0.438-0.518-0.5-1.023
	c-0.049-0.401,0.014-0.747,0.152-0.856c1.679-0.642,3.152-1.717,4.578-2.757c0.656-0.479,1.335-0.973,2.021-1.416
	c0.107-0.069,0.149-0.21,0.101-0.331c-0.039-0.096-0.146-0.256-0.428-0.256c-0.278,0-0.693,0.156-1.218,0.354
	c-0.673,0.255-1.511,0.572-2.163,0.572c-0.493,0-1.06-0.15-1.067-1.313c-0.001-0.058-0.019-0.112-0.051-0.158
	c-0.241-0.337-0.23-0.463-0.217-0.609c0.028-0.309,0.004-0.574-0.574-1.127c-0.105-0.739,0.272-1.41,0.672-2.118
	c0.275-0.487,0.56-0.992,0.7-1.546c0.003-0.013,0.005-0.024,0.007-0.037c0.125-1.12,0.332-1.711,0.47-2.102
	c0.296-0.845,0.139-0.954-0.891-1.661c-0.186-0.127-0.406-0.278-0.665-0.462c-0.042-0.029-0.091-0.045-0.142-0.045
	c-0.021,0-0.042,0.003-0.063,0.008c-0.069,0.018-0.129,0.067-0.162,0.134c-0.668,1.328-3.981,10.008-3.604,19.202
	c0.007,0.173-0.045,0.229-0.062,0.248c-0.081,0.088-0.272,0.133-0.568,0.133c-0.169,0-0.357-0.014-0.539-0.026
	c-0.188-0.015-0.383-0.028-0.563-0.028c-0.086,0-0.165,0.003-0.237,0.01c-0.107-7.959,1.855-15.554,3.585-21.302
	c0.027-0.09,0.007-0.188-0.054-0.259c-0.138-0.159-0.305-0.241-0.495-0.241c-0.255,0-0.498,0.143-0.779,0.307
	c-0.335,0.196-0.714,0.418-1.163,0.418c-0.705,0-1.448-0.553-2.271-1.689c-0.195-0.27-0.285-0.585-0.254-0.891
	c0.042-0.405-0.134-0.778-0.276-1.079c-0.048-0.102-0.009-0.187,0.01-0.218c0.02-0.034,0.078-0.11,0.192-0.11h0.01
	c0.044,0.002,0.089,0.003,0.134,0.003c1.397,0,3.016-0.912,4.438-2.501c1.31-1.462,2.212-3.241,2.354-4.644
	c0.004-0.035,0-0.071-0.009-0.104c-0.04-0.138-0.028-0.204-0.018-0.22c0.013-0.017,0.074-0.049,0.221-0.049
	c1.025,0,3.728,1.462,4.594,1.974c0.003,0.002,0.007,0.004,0.01,0.006c0.282,0.149,0.599,0.224,0.942,0.224
	c0.658,0,1.319-0.263,1.958-0.518c0.286-0.114,0.556-0.222,0.81-0.299c0.032-0.01,0.063-0.026,0.089-0.048
	c0.111-0.094,0.238-0.139,0.39-0.139c0.63,0,1.507,0.778,2.066,1.444c0.03,0.035,0.068,0.061,0.11,0.076
	c0.389,0.135,1.03,0.418,0.971,0.8c-0.1,0.654-1.815,1.521-3.008,1.521c-0.024,0-0.049-0.001-0.073-0.002h-0.008
	c-0.096,0-0.184,0.056-0.228,0.145c-0.044,0.092-0.034,0.203,0.025,0.285c0.294,0.397,0.236,0.94,0.181,1.465
	c-0.066,0.628-0.142,1.339,0.479,1.72c0.021,0.013,0.043,0.021,0.066,0.028c0.28,0.073,0.455,0.359,0.437,0.516
	c-0.009,0.073-0.087,0.11-0.236,0.11c-0.019,0-0.036-0.001-0.056-0.002c-0.005,0-0.017,0-0.017,0
	c-0.243,0.001-0.436,0.075-0.573,0.223c-0.25,0.268-0.243,0.684-0.236,1.086c0.004,0.229,0.008,0.468-0.04,0.64
	c-0.027,0.102,0.004,0.21,0.08,0.277c0.047,0.042,0.105,0.063,0.164,0.063c0.037,0,0.075-0.008,0.109-0.025
	c0.496-0.249,1.069-0.381,1.657-0.381c0.996,0,1.857,0.387,2.248,1.009c0.332,0.528,0.335,1.197,0.011,1.988
	c-0.01,0.022-0.016,0.048-0.019,0.072c-0.215,1.867-0.685,3.732-1.139,5.535c-0.415,1.648-0.844,3.352-1.095,5.097
	c-0.013,0.089,0.019,0.178,0.082,0.237c0.047,0.045,0.107,0.068,0.169,0.068c0.021,0,0.043-0.002,0.064-0.008
	c0.164-0.046,0.411-0.071,0.673-0.099c0.727-0.076,1.479-0.153,1.646-0.694c0.04-0.128,0.041-0.265,0.001-0.411
	c0.441,0.224,0.927,0.438,1.382,0.642c0.389,0.172,0.755,0.335,1.032,0.478c0.012,0.006,0.023,0.01,0.035,0.014
	c0.142,0.047,0.203,0.078,0.229,0.098c-0.013,0.241,0.09,0.484,0.285,0.669c0.03,0.029,0.039,0.055,0.037,0.067
	c-0.001,0.014-0.017,0.03-0.039,0.043c-0.266,0.149-0.461,0.381-0.553,0.652c-0.075,0.226-0.572,0.34-1.479,0.34
	c-0.245,0-0.505-0.007-0.757-0.015c-0.249-0.006-0.508-0.013-0.749-0.013c-0.441,0-0.762,0.024-1.009,0.076
	c-0.349,0.073-0.634,0.117-0.897,0.137c-2.021,0.154-1.985,1.168-1.929,2.848c0.007,0.194,0.014,0.4,0.019,0.619
	c-0.035,0.719-0.039,1.453-0.043,2.232c-0.021,4.007-0.042,8.149-4.458,9.045c-0.703,0.118-1.147,0.535-1.577,0.938
	C416.759,108.285,416.715,108.326,416.671,108.366 M419.974,89.122c-0.055,0-0.108,0.018-0.154,0.054l-0.125,0.101
	c-2.573,2.06-3.112,2.541-2.975,2.969c0.039,0.121,0.148,0.265,0.449,0.265c0.415,0,1.304-0.266,2.881-0.861
	c0.04-0.015,0.075-0.041,0.104-0.073c0.348-0.411,0.251-0.929,0.158-1.428c-0.046-0.251-0.095-0.51-0.084-0.748
	c0.005-0.103-0.049-0.199-0.136-0.248C420.055,89.131,420.014,89.122,419.974,89.122 M419.665,86.122
	c-0.061,0-0.119,0.021-0.166,0.063l-0.619,0.559c-0.096,0.086-0.117,0.233-0.049,0.345c0.049,0.079,0.13,0.123,0.215,0.123
	c0.035,0,0.071-0.008,0.105-0.024c0.036-0.018,0.112-0.026,0.18-0.035c0.168-0.02,0.398-0.048,0.531-0.253
	c0.095-0.145,0.11-0.335,0.048-0.579c-0.022-0.09-0.087-0.159-0.171-0.187C419.715,86.125,419.689,86.122,419.665,86.122
	 M419.612,84.502c-0.095,0-0.27,0.02-0.695,0.2c-0.005,0.002-0.009,0.004-0.014,0.006c-0.142,0.071-0.287,0.133-0.428,0.192
	c-0.669,0.286-1.427,0.61-1.281,1.873c0.009,0.08,0.052,0.151,0.117,0.194c0.041,0.027,0.089,0.041,0.135,0.041
	c0.028,0,0.056-0.005,0.083-0.015c0.382-0.14,1.025-0.608,1.46-0.969c1.043-0.862,1.002-1.118,0.981-1.241
	C419.95,84.655,419.844,84.502,419.612,84.502 M422.908,84.083c-0.025,0-0.052,0.004-0.076,0.013
	c-0.448,0.148-0.841,0.904-0.866,1.43c-0.017,0.339,0.111,0.595,0.353,0.703c0.032,0.016,0.067,0.022,0.102,0.022
	c0.053,0,0.105-0.018,0.149-0.051c0.363-0.278,0.418-0.75,0.467-1.166c0.025-0.218,0.049-0.422,0.109-0.592
	c0.034-0.095,0.014-0.202-0.053-0.276C423.044,84.113,422.977,84.083,422.908,84.083 M424.03,78.887
	c-0.008,0-0.016,0.001-0.023,0.001c-0.105,0.01-0.202,0.019-0.29,0.025c-1.101,0.087-1.17,0.285-1.466,2.064
	c-0.014,0.078,0.008,0.158,0.058,0.22c0.048,0.059,0.118,0.093,0.192,0.093h0.005c1.279-0.027,1.474-0.844,1.681-1.708
	c0.027-0.116,0.056-0.235,0.089-0.358c0.021-0.084,0.003-0.174-0.051-0.241C424.176,78.922,424.104,78.887,424.03,78.887
	 M419.682,76.795c-0.082,0-0.16,0.041-0.208,0.114l-1.021,1.532c-0.067,0.103-0.06,0.239,0.02,0.33c0.05,0.06,0.119,0.09,0.189,0.09
	c0.041,0,0.083-0.011,0.121-0.032c1.227-0.7,1.252-0.812,1.15-1.796c-0.011-0.111-0.087-0.202-0.189-0.23
	C419.724,76.797,419.702,76.795,419.682,76.795 M415.921,75.354c-0.119,0.161-0.222,0.341-0.296,0.555
	c-0.036,0.104-0.007,0.222,0.075,0.294c0.047,0.042,0.104,0.063,0.163,0.063c0.044,0,0.087-0.012,0.126-0.035
	c0.209-0.125,0.561-0.293,0.967-0.488c1.849-0.888,3.382-1.698,3.409-2.641c0.008-0.264-0.102-0.504-0.327-0.718
	c0.23-0.138,0.297-0.313,0.172-0.726c-0.027-0.091-0.1-0.159-0.188-0.179c-0.018-0.004-0.036-0.006-0.054-0.006
	c-0.071,0-0.141,0.031-0.189,0.089c-0.288,0.337-0.833,0.595-1.313,0.821c-0.465,0.22-0.866,0.409-1.05,0.671
	c-0.206,0.295-0.421,0.5-0.655,0.627c-0.477,0.257-1.068,0.578-1.23,1.388c-0.018,0.092,0.011,0.186,0.075,0.248
	c0.047,0.049,0.109,0.073,0.174,0.073c0.022,0,0.044-0.003,0.066-0.009C415.87,75.374,415.896,75.365,415.921,75.354"/>
<path fill="#FFFFFF" d="M358.461,100.162c-3.088,0-8.313-0.592-8.625-4.559c0-0.005-0.001-0.011-0.002-0.017
	c-0.188-1.331,0.569-2.793,1.239-4.082c0.552-1.065,1.029-1.984,0.991-2.773c-0.003-0.093-0.054-0.177-0.132-0.221
	c-0.038-0.022-0.079-0.033-0.121-0.033c-0.044,0-0.089,0.013-0.129,0.038c-0.339,0.209-0.72,0.315-1.134,0.315
	c-1.17,0-2.193-0.833-2.384-1.171c0.082,0.001,0.232,0.02,0.494,0.104c0.025,0.008,0.051,0.012,0.075,0.012
	c0.08,0,0.159-0.041,0.208-0.114c0.063-0.094,0.062-0.22-0.005-0.313c-0.096-0.133-0.091-0.218-0.078-0.271
	c0.092-0.383,0.968-0.812,1.671-1.155c0.636-0.311,1.235-0.604,1.549-0.948c0.076-0.084,0.092-0.211,0.038-0.313
	c-0.046-0.085-0.132-0.137-0.223-0.137c-0.017,0-0.033,0.002-0.05,0.005c-0.246,0.052-0.439,0.084-0.576,0.093
	c0.067-0.096,0.16-0.213,0.235-0.309c0.279-0.355,0.624-0.794,0.808-1.289c0.947-0.932,1.369-1.865,1.131-2.504
	c-0.121-0.324-0.402-0.518-0.753-0.518c-0.398,0-0.832,0.239-1.223,0.675c-0.037,0.012-0.077,0.018-0.121,0.018
	c-0.36,0-0.813-0.395-0.994-0.584c-0.108-0.257-0.639-1.435-1.457-2.063c0.574-0.486,1.351-0.926,2.166-1.387
	c1.011-0.571,2.056-1.163,2.969-1.957c0.401-0.224,0.469-0.259,0.502-0.276c0.039-0.021,0.04-0.021,0.315-0.18
	c0.581-0.262,1.073-0.694,1.55-1.113c0.68-0.6,1.323-1.164,2.141-1.164c0,0,0.039,0,0.041,0c0.02,0,0.04-0.002,0.059-0.007
	c0.133-0.033,0.295-0.052,0.468-0.069c0.392-0.042,0.886-0.094,1.195-0.402c0.261,0.306,0.654,0.33,0.92,0.345
	c0.043,0.003,0.085,0.005,0.125,0.009c1.353,0.135,2.021,1.191,2.183,2.057c0.197,1.056-0.241,2.047-1.117,2.527
	c-0.008,0.003-0.016,0.008-0.022,0.013c-0.294,0.203-0.631,0.243-1.079,0.243c-0.065,0-0.132,0-0.198-0.001
	c-0.068-0.001-0.136-0.002-0.203-0.002c-0.595,0-1.27,0.062-1.741,0.806c-0.019,0.03-0.032,0.064-0.038,0.101
	c-0.037,0.215-0.501,0.616-0.809,0.884c-0.487,0.423-0.811,0.703-0.739,1.03c0.006,0.027,0.016,0.058,0.03,0.088
	c-0.864,0.902-1.149,1.398-1.042,1.791c0.109,0.401,0.564,0.504,1.093,0.622c0.45,0.101,0.997,0.224,1.438,0.541
	c-0.037,0.088-0.052,0.187-0.006,0.289c0.007,0.017,0.021,0.041,0.04,0.066c-0.395,0.33-0.642,0.751-0.883,1.161
	c-0.149,0.255-0.305,0.519-0.492,0.752c-2.898,3.012-4.626,5.854-5.437,8.94c-0.228,0.825-0.146,1.523,0.246,2.068
	c0.625,0.871,2.024,1.313,4.16,1.313c2.521,0,5.064-0.601,5.346-0.669c0.036-0.009,0.069-0.025,0.099-0.049
	c0.963-0.781,0.142-2.158-0.583-3.372c-0.3-0.503-0.606-1.018-0.78-1.464c0.014-0.007,0.026-0.014,0.039-0.022
	c0.016-0.01,0.029-0.022,0.042-0.035c0.042,0.062,0.083,0.122,0.12,0.178c0.369,0.544,0.63,0.916,0.854,1.063
	c0.211,0.171,0.414,0.254,0.619,0.254c0.196,0,0.36-0.071,0.52-0.141c0.172-0.075,0.334-0.147,0.557-0.147
	c0.254,0,0.547,0.095,0.895,0.289c0.037,0.021,0.078,0.032,0.119,0.032c0.043,0,0.087-0.012,0.126-0.035
	c0.092-0.055,0.173-0.083,0.241-0.083c0.146,0,0.27,0.124,0.455,0.329c0.057,0.063,0.116,0.127,0.18,0.188
	c0.019,0.019,0.039,0.045,0.062,0.073c0.077,0.1,0.207,0.266,0.446,0.266c0.053,0,0.106-0.008,0.163-0.024
	c0.266,0.122,0.535,0.451,0.797,0.77c0.216,0.265,0.44,0.537,0.682,0.718c0.209,0.164,0.489,0.217,0.759,0.268
	c0.247,0.047,0.5,0.095,0.577,0.216c0.039,0.063,0.044,0.168,0.014,0.315c-0.013,0.06-0.005,0.122,0.021,0.177
	c0.076,0.158,0.065,0.212,0.065,0.213c-0.018,0.028-0.129,0.079-0.195,0.109c-0.232,0.105-0.621,0.283-0.612,0.827
	c0.002,0.087,0.043,0.167,0.111,0.216c0.043,0.03,0.093,0.046,0.144,0.046c0.029,0,0.06-0.006,0.088-0.017
	c0.046-0.019,0.074-0.021,0.086-0.021c0.008,0,0.011,0.001,0.011,0.001c0.004,0.005,0.032,0.056,0.033,0.173
	c0.002,0.178-0.06,0.37-0.123,0.458c-0.984,0.487-2.55,0.966-4.309,1.318C363.007,99.831,360.853,100.162,358.461,100.162
	L358.461,100.162z"/>
<path fill="#FFFFFF" d="M342.407,100.433c-1.501,0-3.924-3.852-4.134-5.314c0.262-1.43,2.098-2.502,3.316-3.214
	c0.044-0.027,0.08-0.066,0.104-0.114c0.221-0.461,0.238-0.979,0.255-1.479c0.021-0.603,0.04-1.173,0.386-1.667
	c0.044-0.063,0.06-0.146,0.041-0.222c-0.019-0.077-0.068-0.141-0.137-0.176c-1.086-0.543-1.687-1.087-1.836-1.663
	c-0.181-0.701,0.303-1.447,0.862-2.31c0.283-0.438,0.577-0.89,0.803-1.373c0.053-0.113,0.023-0.249-0.071-0.327
	c-0.046-0.037-0.102-0.058-0.156-0.058c-0.059,0-0.116,0.021-0.164,0.063c-0.384,0.339-0.784,0.765-1.209,1.216
	c-1.022,1.087-2.182,2.319-3.189,2.32c-0.643,0-1.198-0.511-1.699-1.559c-0.022-0.045-0.056-0.083-0.098-0.108
	c-0.243-0.151-0.331-0.243-0.361-0.283c0.016-0.021,0.039-0.045,0.057-0.065c0.113-0.123,0.354-0.386,0.156-0.766
	c1.129-1.142,2.598-2.033,4.148-2.974c1.356-0.823,2.758-1.675,3.91-2.709c0.07-0.063,0.103-0.162,0.083-0.258
	c-0.02-0.095-0.087-0.172-0.175-0.199c-0.11-0.035-0.226-0.054-0.342-0.054c-0.52,0-1.006,0.352-1.476,0.689
	c-0.329,0.238-0.667,0.48-1.006,0.6c1.124-1.583,2.207-3.377,1.623-5.706c1.201,0.167,2.319,0.915,3.404,1.64
	c0.253,0.169,0.514,0.343,0.77,0.505c0.001,0.067-0.016,0.185-0.024,0.247c-0.019,0.133-0.033,0.237-0.01,0.332
	c0.015,0.061,0.05,0.113,0.099,0.15c0.122,0.092,0.137,0.192,0.146,0.457c0.002,0.029,0.003,0.06,0.004,0.089
	c0.021,0.413,0.228,0.694,0.61,0.834c0.121,0.069,0.162,0.123,0.167,0.144c0.011,0.039-0.065,0.165-0.106,0.233
	c-0.103,0.172-0.243,0.407-0.143,0.673c0.044,0.116,0.126,0.217,0.254,0.304c-0.025,0.027-0.048,0.056-0.067,0.087
	c-0.129,0.208-0.063,0.429-0.02,0.575c0.012,0.041,0.029,0.101,0.032,0.132c-0.009,0.006-0.025,0.016-0.055,0.029
	c-0.003,0.001-0.006,0.002-0.009,0.004c-0.266,0.122-0.548,0.213-0.849,0.311c-0.818,0.266-1.666,0.539-2.118,1.455
	c-0.004,0.007-0.007,0.013-0.01,0.021c-0.045,0.111-0.272,0.406-0.474,0.668c-0.592,0.766-0.919,1.216-0.768,1.549
	c0.038,0.083,0.138,0.223,0.385,0.223c0.015,0,0.029,0,0.046-0.001c0.056-0.004,0.108-0.025,0.15-0.064
	c0.292-0.265,0.617-0.394,0.993-0.394c0.362,0,0.775,0.124,1.23,0.369c-0.266,0.413-0.115,0.83,0.011,1.178
	c0.047,0.13,0.095,0.265,0.125,0.397c0.004,0.02,0.011,0.04,0.02,0.058c0.577,1.232,0.031,1.646-1.066,2.332
	c-0.86,0.537-1.933,1.206-2.066,2.671c-0.008,0.099,0.035,0.193,0.114,0.248c0.042,0.029,0.091,0.044,0.14,0.044
	c0.042,0,0.084-0.012,0.121-0.033c0.25-0.144,0.506-0.22,0.741-0.22c0.29,0,0.523,0.118,0.624,0.316
	c0.114,0.224,0.061,0.534-0.15,0.874c-0.511,0.548-1.245,0.78-2.021,1.025c-0.943,0.3-1.919,0.607-2.605,1.511
	c-0.186,0.116-0.588,0.4-0.548,0.824c0.054,0.579,0.891,0.888,1.502,1.112c0.058,0.021,0.11,0.04,0.157,0.059
	c0.028,0.011,0.058,0.016,0.087,0.016c0.063,0,0.125-0.024,0.172-0.07c2.421-2.338,4.108-3.523,5.017-3.523
	c0.208,0,0.355,0.064,0.464,0.202c0.193,0.247,0.363,0.867,0.071,2.414c-0.02,0.103,0.02,0.206,0.1,0.268
	c0.044,0.034,0.097,0.051,0.149,0.051c0.042,0,0.085-0.011,0.123-0.033c0.533-0.311,0.959-0.792,1.331-1.285
	c-0.027,0.073-0.056,0.146-0.084,0.222c-0.734,1.924-1.493,3.913-3.281,4.194c-0.626-0.275-0.988-0.586-1.078-0.922
	c-0.138-0.521,0.34-1.188,0.846-1.893c0.377-0.526,0.767-1.069,0.971-1.644c0.034-0.094,0.014-0.199-0.051-0.274
	c-0.049-0.054-0.118-0.085-0.187-0.085c-0.023,0-0.048,0.004-0.071,0.011c-1.375,0.419-3.212,2.064-2.958,3.687
	c0.008,0.049,0.028,0.094,0.06,0.132c0.113,0.135,0.253,0.247,0.388,0.354c0.258,0.207,0.422,0.352,0.446,0.548
	c-0.088,0.304-0.011,0.579,0.052,0.804c0.065,0.233,0.103,0.385,0.035,0.54c-0.002,0.005-0.003,0.009-0.005,0.013
	C343.177,100.101,342.843,100.433,342.407,100.433"/>
<path fill="#FFFFFF" d="M261.247,100.665c-0.193,0-0.225-0.12-0.237-0.166c-0.196-0.728-0.373-1.476-0.545-2.199
	c-0.06-0.253-0.119-0.506-0.18-0.759c0.239-0.465,0.076-0.881-0.057-1.222c-0.054-0.139-0.105-0.27-0.128-0.393
	c-0.09-0.491-0.369-0.545-0.484-0.545c-0.138,0-0.277,0.065-0.424,0.199c-0.235,0.213-0.47,0.427-0.704,0.643
	c-0.938,0.862-1.908,1.752-2.962,2.458c-0.848,0.416-1.305,0.503-1.539,0.503c-0.155,0-0.253-0.035-0.288-0.105
	c-0.094-0.189,0.027-0.75,0.636-1.729c0.132,0.123,0.278,0.184,0.442,0.184c0.23,0,0.434-0.124,0.632-0.245
	c0.15-0.093,0.306-0.188,0.454-0.213c0.05-0.01,0.096-0.033,0.133-0.07c0.503-0.501,1.364-1.572,2.066-2.736
	c0.583-0.966,1.241-2.308,1.067-3.216c-0.017-0.089-0.076-0.163-0.157-0.196c-0.03-0.012-0.061-0.018-0.092-0.018
	c-0.053,0-0.106,0.018-0.15,0.052c-0.874,0.674-1.67,1.455-2.441,2.211c-1.08,1.06-2.193,2.152-3.515,2.933
	c0.037-0.39,0.253-0.881,0.627-1.2c1.75-1.501,2.92-3.401,3.835-5.063c0.761-1.139,0.848-1.389,0.741-1.606
	c-0.053-0.106-0.157-0.17-0.278-0.17c-0.21,0-0.493,0.187-1.281,0.728c-1.428,0.981-4.086,2.807-6.42,2.807
	c-0.066,0-0.131-0.002-0.195-0.004c0.439-0.692,1.069-1.224,1.73-1.78c0.416-0.352,0.846-0.714,1.225-1.12
	c1.116-1.036,2.019-2.279,2.893-3.481c0.223-0.306,0.453-0.623,0.682-0.93c0.07-0.083,0.256-0.311,0.194-0.569
	c-0.065-0.272-0.338-0.378-0.602-0.479c-0.443-0.17-0.654-0.29-0.625-0.627c0.575-1.336,2.067-1.984,3.646-2.67
	c1.112-0.484,2.262-0.983,3.064-1.756c0.116-0.108,0.298-0.145,0.491-0.183c0.258-0.051,0.614-0.121,0.765-0.461
	c0.312,0.299,0.809,0.374,1.233,0.438c0.73,0.111,1.052,0.204,1.074,0.629c0.001,0.013,0.002,0.025,0.005,0.039
	c0.165,0.841-0.292,1.202-1.052,1.724c-0.334,0.229-0.678,0.466-0.959,0.782c-0.436,0.364-0.85,0.773-1.25,1.171
	c-0.561,0.555-1.142,1.131-1.774,1.564c-0.06,0.041-0.1,0.107-0.111,0.183c-0.011,0.073,0.008,0.149,0.054,0.209l0.118,0.151
	c0.017,0.021,0.037,0.04,0.059,0.055c-0.145,0.201-0.177,0.355-0.123,0.507c0.102,0.291,0.46,0.291,0.633,0.291
	c0.164,0,0.367-0.016,0.58-0.031c0.26-0.019,0.555-0.041,0.846-0.041c0.727,0,1.202,0.145,1.451,0.439
	c0.019,0.021,0.04,0.04,0.064,0.054c0.167,0.101,0.296,0.146,0.42,0.146c0.261,0,0.417-0.194,0.526-0.363
	c0.264-0.423,0.55-0.844,0.827-1.248c0.953-1.396,1.938-2.837,2.169-4.672c0.388-1.577,0.61-1.748,0.688-1.748
	c0.17,0,0.551,0.475,0.919,0.935c0.207,0.257,0.44,0.549,0.71,0.859c0.105,0.142,0.213,0.282,0.32,0.425
	c0.885,1.17,1.722,2.276,1.342,3.773c-0.268,0.539-0.729,0.58-1.454,0.602c-0.605,0.018-1.292,0.038-1.81,0.585
	c-0.141,0.131-0.685,0.373-1.165,0.586c-1.333,0.593-2.215,1.022-2.327,1.555c-0.033,0.156,0.003,0.313,0.102,0.443
	c0.053,0.119,0.102,0.236,0.15,0.352c0.375,0.884,0.729,1.718,1.7,2.216c0.429,0.239,1.024,0.783,1.655,1.359
	c1.132,1.035,2.302,2.106,3.211,2.106c0.032,0,0.064-0.001,0.096-0.004c0.124,0.063,0.379,0.334,0.506,0.47
	c0.082,0.087,0.16,0.169,0.227,0.23c0.012,0.013,0.025,0.022,0.04,0.031c0.341,0.211,0.561,0.517,0.651,0.905
	c0.181,0.769-0.157,1.725-0.536,2.366c-0.033,0.05-0.131,0.177-0.439,0.177c-1.086,0-3.301-1.547-3.904-2.205
	c-0.367-0.412-0.795-0.748-1.248-1.103c-0.202-0.158-0.411-0.322-0.616-0.495c-0.045-0.038-0.102-0.059-0.158-0.059
	c-0.028,0-0.056,0.005-0.082,0.015c-0.083,0.029-0.146,0.101-0.165,0.19c-0.518,2.29-1.057,4.332-2.369,6.026
	c-0.121-0.088-0.25-0.133-0.386-0.133c-0.276,0-0.506,0.182-0.729,0.358c-0.14,0.111-0.284,0.227-0.427,0.282l-0.01,0.004
	c-0.049,0.022-0.115,0.033-0.203,0.033c-0.088,0-0.184-0.011-0.286-0.021c-0.109-0.012-0.221-0.023-0.332-0.023
	c-0.084,0-0.159,0.006-0.227,0.021c-0.014,0.003-0.028,0.008-0.041,0.013C261.384,100.649,261.312,100.665,261.247,100.665
	 M263.354,90.646c-0.083,0-0.165,0.044-0.212,0.122c-0.696,1.123-1.308,1.613-1.754,1.973c-1.006,0.807-1.059,1.104,0.341,3.877
	c0.04,0.077,0.114,0.131,0.198,0.14c0.009,0.001,0.017,0.002,0.027,0.002c0.074,0,0.146-0.035,0.194-0.095
	c0.642-0.805,0.826-2.13,1.005-3.412c0.11-0.79,0.223-1.606,0.441-2.251c0.043-0.127-0.012-0.269-0.127-0.328
	C263.431,90.655,263.393,90.646,263.354,90.646 M259.729,87.819c-0.02,0.229-0.505,1.067-0.717,1.434
	c-0.039,0.068-0.048,0.151-0.022,0.228c0.026,0.075,0.083,0.136,0.155,0.161c0.077,0.029,0.161,0.044,0.248,0.044
	c0.398,0,0.83-0.299,1.287-0.615c0.433-0.299,0.882-0.607,1.227-0.607c0.17,0,0.3,0.077,0.42,0.251
	c0.048,0.067,0.124,0.108,0.205,0.108c0.081,0,0.157-0.039,0.205-0.107c0.567-0.809,0.73-1.479,0.483-1.99
	c-0.247-0.512-0.888-0.795-1.804-0.795c-1.052,0-2.213,0.365-2.823,0.887c-0.057,0.048-0.092,0.122-0.093,0.199
	c-0.002,0.077,0.028,0.152,0.083,0.204c0.367,0.348,0.727,0.461,0.964,0.536C259.607,87.774,259.688,87.799,259.729,87.819"/>
<path fill="#FFFFFF" d="M250.734,81.411c-0.311,0-0.486-1.097-0.552-1.511c-0.042-0.262-0.018-0.56,0.074-0.934
	c0.036-0.144,0.014-0.285-0.005-0.412c-0.012-0.076-0.024-0.16-0.017-0.213c0.421-0.331,0.61-0.791,0.793-1.237
	c0.156-0.379,0.303-0.738,0.585-0.989c0.008-0.007,0.015-0.013,0.022-0.021c0.463-0.519,1.063-1.068,1.698-1.651
	c1.972-1.81,4.207-3.859,4.027-6.385c-0.021-0.287,0.074-0.563,0.26-0.758c0.128-0.134,0.185-0.311,0.235-0.466
	c0.075-0.234,0.099-0.256,0.142-0.256c0.145,0,0.56,0.157,1.718,1.208c0.338,0.415,0.762,0.718,1.172,1.011
	c0.546,0.39,1.061,0.758,1.328,1.354c0.012,0.028,0.03,0.055,0.052,0.077c0.216,0.222,0.406,0.647,0.59,1.058
	c0.348,0.776,0.743,1.655,1.523,1.655c0.037,0,0.076-0.002,0.114-0.006c0.012-0.001,0.022-0.003,0.033-0.006
	c0.62-0.158,1.273-0.267,1.905-0.371c0.91-0.151,1.849-0.307,2.729-0.614c0.646,0.658,1.275,1.426,1.292,2.222
	c0.009,0.443-0.172,0.87-0.551,1.301c-1.053,0.219-2.145,0.342-3.202,0.459c-1.466,0.164-2.964,0.332-4.419,0.757
	c0.511-0.354,0.983-0.733,1.248-1.186c0.05-0.086,0.049-0.195-0.002-0.281c-0.047-0.077-0.128-0.125-0.215-0.125
	c-0.009,0-0.017,0.001-0.026,0.002c-0.152,0.017-0.305,0.032-0.458,0.048c-1.367,0.137-2.78,0.279-4.026,1.053
	c-0.166,0.055-0.333,0.109-0.501,0.165c-1.749,0.573-3.558,1.166-4.958,2.566c-0.159,0.167-0.385,0.32-0.624,0.483
	c-0.485,0.329-1.033,0.701-1.143,1.294C251.073,81.339,250.821,81.411,250.734,81.411 M257.989,71.025
	c-0.21,0-0.421,0.094-0.61,0.273c-0.013,0.012-0.024,0.025-0.034,0.039c-0.322,0.455-1.143,1.106-2.013,1.795
	c-1.853,1.472-3.769,2.991-3.082,4.145c0.047,0.08,0.13,0.125,0.215,0.125c0.037,0,0.074-0.008,0.108-0.025
	c2.205-1.093,4.566-2.189,7.431-3.453c0.073-0.032,0.128-0.099,0.148-0.18c0.019-0.081,0.002-0.167-0.048-0.231
	c-0.163-0.215-0.333-0.41-0.497-0.6c-0.383-0.442-0.745-0.861-0.96-1.432c-0.005-0.012-0.01-0.022-0.015-0.033
	C258.488,71.179,258.254,71.025,257.989,71.025"/>
<path fill="#FFFFFF" d="M238.363,100.212c-0.084,0-0.209-0.029-0.329-0.169c-0.266-0.31-0.275-0.53-0.287-0.836
	c-0.007-0.181-0.016-0.382-0.082-0.61c-0.039-0.207-0.196-0.338-0.324-0.435c0.087-0.058,0.134-0.164,0.116-0.272
	c-0.02-0.12-0.115-0.21-0.23-0.22c-0.048-0.004-0.094-0.005-0.139-0.005c-0.355,0-0.598,0.118-0.759,0.196
	c-0.021,0.01-0.046,0.021-0.068,0.031c-0.156-0.193-0.338-0.352-0.539-0.47c-0.049-0.028-0.125-0.094-0.205-0.164
	c-0.301-0.261-0.804-0.697-1.58-0.697c-0.233,0-0.479,0.039-0.729,0.118c-1.151,0.314-2.111,1.074-2.958,1.745
	c-0.858,0.679-1.6,1.266-2.328,1.266c-0.809,0-1.585-0.758-2.442-2.388c-0.012-0.021-0.025-0.04-0.041-0.058
	c-0.366-0.39-0.313-0.48-0.173-0.723c0.068-0.117,0.153-0.264,0.199-0.451c0.025-0.1,0.106-0.168,0.199-0.168
	c0.032,0,0.063,0.008,0.092,0.023c0.106,0.058,0.223,0.112,0.368,0.112c0.135,0,0.265-0.046,0.397-0.142
	c0.2-0.064,0.415-0.096,0.64-0.128c0.519-0.074,1.1-0.158,1.527-0.704c0.941-0.071,1.875-0.408,2.777-0.734
	c0.941-0.339,1.829-0.661,2.651-0.661c0.68,0,1.228,0.218,1.723,0.686c0.048,0.045,0.109,0.068,0.17,0.068
	c0.056,0,0.113-0.02,0.159-0.059c0.097-0.082,0.124-0.227,0.062-0.34c-1.506-2.78-2.054-3.68-2.773-3.68
	c-0.489,0-0.889,0.44-1.552,1.168c-0.563,0.619-1.288,1.415-2.372,2.293c1.188-1.765,2.321-3.383,3.443-4.915
	c0.023-0.032,0.039-0.067,0.047-0.106c0.236-1.173-0.199-2.413-0.62-3.612c-0.344-0.98-0.699-1.993-0.691-2.961
	c0-0.013-0.001-0.027-0.002-0.042c-0.059-0.405-0.324-0.637-0.729-0.637c-0.604,0-1.533,0.514-2.43,1.011
	c-0.659,0.365-1.34,0.742-1.699,0.792c-0.138,0.02-0.235,0.151-0.219,0.296c0.071,0.619,0.292,0.932,0.656,0.932
	c0.348,0,0.713-0.327,1.099-0.676c0.233-0.21,0.475-0.427,0.671-0.528c0.026-0.013,0.05-0.031,0.07-0.054
	c0.122-0.132,0.21-0.146,0.267-0.146c0.062,0,0.125,0.021,0.185,0.041c0.062,0.021,0.125,0.043,0.195,0.043
	c0.061,0,0.118-0.017,0.166-0.047c1.253,1.194-0.356,3.444-1.321,4.793c-0.052,0.073-0.103,0.145-0.151,0.212
	c-0.071,0.1-0.066,0.237,0.011,0.332c0.05,0.061,0.121,0.094,0.193,0.094c0.04,0,0.081-0.011,0.119-0.031
	c0.334-0.185,0.801-0.497,1.221-0.789c0.009,0.041,0.029,0.079,0.057,0.112c0.05,0.058,0.119,0.088,0.189,0.088
	c0.052,0,0.104-0.017,0.148-0.051c0.173-0.131,0.566-0.435,0.91-0.702c0.05,0.055,0.117,0.082,0.184,0.082
	c0.02,0,0.039-0.001,0.058-0.006c-0.019,0.038-0.039,0.077-0.058,0.112c-0.283,0.555-0.752,1.473-0.738,2.624
	c-0.744,1.345-3.227,3.729-4.966,3.729h-0.001c-0.729,0-1.223-0.425-1.51-1.299c-0.118-0.546,0.201-0.78,0.772-1.144
	c0.434-0.274,0.926-0.588,1.023-1.176c0.013-0.079-0.009-0.16-0.059-0.221c-0.3-0.359-0.476-1.124-0.592-1.63
	c-0.033-0.146-0.062-0.272-0.091-0.375c-0.117-0.655,0.054-1.438,0.22-2.196c0.228-1.046,0.444-2.035-0.023-2.786
	c-0.283-0.452-0.775-0.747-1.505-0.897c-0.294-0.151-0.332-0.2-0.291-0.384c0.026-0.116-0.026-0.237-0.126-0.295
	c-0.038-0.021-0.08-0.032-0.121-0.032c-0.068,0-0.135,0.028-0.184,0.083c-0.53,0.581-0.754,5.054-0.733,6.848
	c-0.087,1.341,0.214,2.703,0.504,4.019c0.258,1.169,0.502,2.274,0.437,3.228c-0.267,0.435-0.52,0.665-0.733,0.665
	c-0.279,0-1.019-0.431-1.856-4.419c-0.521-2.479-0.867-5.33-1.034-6.701c-0.032-0.264-0.058-0.478-0.077-0.626
	c-0.002-0.009-0.003-0.019-0.005-0.026c-0.273-1.201-0.059-2.393,0.168-3.655c0.194-1.076,0.395-2.19,0.254-3.295
	c-0.002-0.017-0.005-0.031-0.01-0.048c-0.048-0.154-0.053-0.229-0.057-0.315c-0.017-0.284-0.059-0.513-0.689-1.589
	c-0.091-0.154-0.14-0.262-0.165-0.332c0.228,0.065,0.626,0.287,0.98,0.585c0.203,0.17,0.428,0.318,0.669,0.442
	c2.31,1.191,2.38,2.513,2.428,3.386c0.028,0.523,0.059,1.116,0.774,1.116c0.564,0,1.593-0.38,4.078-1.503
	c0.01-0.005,0.021-0.011,0.03-0.017c0.229-0.146,0.534-0.248,0.856-0.357c0.602-0.204,1.223-0.414,1.513-0.953
	c0.047-0.086,0.044-0.19-0.007-0.273c-0.12-0.199-0.203-0.606-0.282-0.999c-0.172-0.843-0.366-1.798-1.108-1.798
	c-0.088,0-0.18,0.015-0.275,0.046c-0.019,0.006-0.037,0.014-0.053,0.023c-0.125,0.076-0.252,0.155-0.381,0.235
	c-0.848,0.529-1.726,1.077-2.521,1.077c-0.558,0-1.021-0.286-1.415-0.872c-0.024-0.035-0.042-0.093-0.061-0.155l-0.012-0.036
	c-0.009-0.029-0.022-0.056-0.036-0.08c0.032-0.007,0.07-0.014,0.115-0.021c1.442-0.25,2.692-1.062,3.901-1.845
	c1.288-0.836,2.62-1.699,4.173-1.868c0.007,0,0.013-0.001,0.019-0.003c0.572-0.108,1.172-0.256,1.753-0.398
	c1.237-0.305,2.517-0.619,3.728-0.619c0.894,0,1.658,0.171,2.335,0.523c0.339,0.278,0.704,0.543,1.057,0.798
	c1.149,0.831,2.236,1.618,2.641,2.948c-1.22,2.252-1.984,5.051-2.155,7.898c-0.488,4.447-0.744,8.954-0.764,13.397
	c0,0.015,0.002,0.031,0.004,0.046c0.259,1.566,0.076,2.354-0.575,2.485c-0.02,0.004-0.04,0.01-0.058,0.019l-0.049,0.023
	c-0.808,0.384-1.722,0.817-2.075,1.713C238.509,100.184,238.446,100.212,238.363,100.212 M237.307,91.975
	c0.609,0.933,0.266,1.271-0.167,1.698c-0.254,0.25-0.541,0.534-0.509,0.945c0.032,0.417,0.396,0.851,1.182,1.406
	c0.042,0.031,0.092,0.047,0.142,0.047c0.041,0,0.083-0.012,0.121-0.032c0.083-0.048,0.134-0.141,0.133-0.239
	c-0.024-1.33,0.023-2.682,0.068-3.99c0.07-2.003,0.142-4.073-0.032-6.161c-0.012-0.137-0.121-0.242-0.253-0.242h-0.005
	c-0.133,0.003-0.242,0.113-0.249,0.254c-0.011,0.249-0.638,0.999-1.052,1.496c-0.77,0.92-1.133,1.378-0.982,1.726
	c0.037,0.087,0.139,0.233,0.402,0.233c0.07,0,0.148-0.01,0.24-0.029c0.058-0.013,0.111-0.046,0.148-0.095
	c0.056-0.074,0.101-0.123,0.134-0.155c0.028,0.131,0.054,0.404,0.014,0.89c-0.001,0.009-0.001,0.019-0.001,0.027
	c0.002,0.058,0.002,0.115,0.003,0.172C236.653,90.601,236.664,91.367,237.307,91.975 M229.331,83.796
	c-0.075,0-0.147,0.025-0.207,0.073c-1.294,0.997-2.238,1.95-1.673,4.326c0.021,0.087,0.083,0.157,0.164,0.187
	c0.027,0.01,0.054,0.015,0.082,0.015c0.056,0,0.112-0.02,0.157-0.057c1.207-0.987,1.47-2.324,1.724-3.618
	c0.032-0.159,0.063-0.32,0.097-0.479c0.022-0.109-0.003-0.222-0.069-0.309S229.437,83.796,229.331,83.796 M233.898,76.752
	c0.048,0,0.097,0.004,0.145,0.013c0.437,0.078,0.581,0.189,0.625,0.269c0.004,0.008,0.008,0.014,0.013,0.021
	c0.271,0.399,0.68,0.684,1.075,0.957c0.401,0.278,0.78,0.541,0.961,0.883c0.044,0.083,0.048,0.181,0.01,0.269
	s-0.112,0.15-0.203,0.171c-1.647,0.374-2.472,0.812-2.848,1.514c-0.516,0.963-0.079,2.279,0.645,4.459
	c0.034,0.104,0.125,0.174,0.229,0.178h0.011c0.1,0,0.191-0.061,0.232-0.156c0.479-1.128,1.075-2.531,1.614-2.531
	c0.239,0,0.655,0.275,1.275,1.587c0.043,0.092,0.133,0.148,0.227,0.148c0.018,0,0.035-0.002,0.053-0.007
	c0.113-0.024,0.196-0.128,0.201-0.25c0.038-0.944,0.104-1.886,0.169-2.795c0.095-1.346,0.193-2.736,0.194-4.117
	c0-0.077-0.032-0.151-0.088-0.201c-0.046-0.042-0.105-0.065-0.166-0.065c-0.013,0-0.024,0.001-0.037,0.003
	c-0.156,0.024-0.305,0.063-0.449,0.103c-0.18,0.048-0.349,0.093-0.488,0.093c-0.143,0-0.252-0.041-0.358-0.246
	c-0.005-0.01-0.01-0.019-0.016-0.028c-0.1-0.146-0.254-0.345-0.433-0.573c-0.469-0.604-1.571-2.017-1.37-2.458
	c0.047-0.105,0.235-0.164,0.518-0.164c0.063,0,0.131,0.003,0.203,0.008c0.402,0.248,0.795,0.631,1.143,0.971
	c0.477,0.466,0.821,0.802,1.154,0.802c0.132,0,0.251-0.054,0.343-0.155c0.207-0.229,0.274-0.687,0.232-1.578
	c0.046-0.517-0.056-0.923-0.304-1.211c-0.281-0.325-0.724-0.483-1.357-0.483c-0.729,0-1.592,0.209-2.352,0.395
	c-0.493,0.118-0.96,0.231-1.263,0.253c-0.027,0.002-0.054,0.008-0.079,0.018c-0.167,0.071-0.503,0.137-0.859,0.205
	c-0.935,0.182-1.995,0.387-2.206,1.009c-0.093,0.272-0.015,0.565,0.231,0.87c0.017,0.021,0.035,0.037,0.056,0.052
	c0.241,0.165,0.51,0.568,0.771,0.959c0.442,0.661,0.859,1.285,1.404,1.286c0.185,0,0.362-0.075,0.525-0.222
	C233.458,76.84,233.677,76.752,233.898,76.752"/>
<path fill="#FFFFFF" d="M299.266,98.069c-2.306,0-4.327-1.652-6.283-3.25c-0.8-0.653-1.556-1.271-2.334-1.785
	c-0.029-0.019-0.061-0.031-0.094-0.037c-0.036-0.007-0.073-0.01-0.11-0.01c-0.527,0-0.858,0.629-1.179,1.237
	c-0.192,0.364-0.392,0.741-0.589,0.897c-0.015,0.012-0.028,0.025-0.041,0.04c-1.061,1.296-2.836,1.953-5.277,1.953
	c-0.335,0-0.683-0.013-1.036-0.039c-0.192-0.025-0.393-0.039-0.587-0.052c-0.797-0.058-1.549-0.111-1.913-0.838
	c-0.018-0.035-0.043-0.065-0.073-0.089c-0.585-0.457-1.251-0.761-1.896-1.055c-0.338-0.154-0.667-0.305-0.979-0.473
	c0.021-0.031,0.035-0.062,0.043-0.081c0.098-0.281-0.153-0.504-0.826-1.104c-0.284-0.253-0.616-0.548-0.855-0.807
	c0.024,0.006,0.049,0.012,0.074,0.018c0.017,0.003,0.033,0.005,0.05,0.005c0.09,0,0.174-0.051,0.221-0.136
	c0.054-0.099,0.042-0.223-0.031-0.308c-0.158-0.188-0.152-0.328-0.134-0.417c0.052-0.25,0.293-0.505,0.607-0.743
	c-0.366,0.489-0.36,1.188,0.025,1.661c1.101,1.353,2.825,2.099,4.854,2.099h0.001c2.915,0,5.754-1.522,7.064-3.791
	c0.039-0.066,0.048-0.147,0.024-0.223c-0.024-0.074-0.077-0.133-0.146-0.162c-0.847-0.354-3.839-1.513-6.83-1.513
	c-0.442,0-0.863,0.023-1.261,0.074c0.734-0.174,1.492-0.257,2.298-0.257c1.176,0,2.306,0.172,3.502,0.353
	c0.964,0.146,1.962,0.298,3,0.354c0.004,0.001,0.009,0.001,0.013,0.001c0.089,0,0.172-0.049,0.218-0.129
	c0.624-1.089,0.727-2.269,0.826-3.408c0.091-1.064,0.18-2.069,0.657-3.011c0.049-0.097,0.036-0.215-0.032-0.299
	c-0.049-0.06-0.119-0.093-0.192-0.093c-0.028,0-0.057,0.005-0.084,0.016c-1.587,0.581-2.973,1.521-4.313,2.432
	c-0.888,0.602-1.727,1.172-2.614,1.639c-0.283,0.143-0.562,0.218-0.82,0.218c-0.619,0-1.029-0.421-1.265-0.772
	c-0.526-0.792-0.705-2.041-0.435-2.967c2.667-0.775,4.909-2.787,6.755-4.661c0.02-0.021,0.038-0.047,0.051-0.073
	c0.176-0.373,0.145-0.757,0.024-1.135c0.003-0.011,0.005-0.021,0.006-0.032c0.095-0.702-0.107-1.305-0.601-1.792
	c-0.049-0.048-0.111-0.072-0.175-0.072c-0.036,0-0.072,0.008-0.106,0.025c-0.004-0.004-0.007-0.009-0.011-0.012
	c-0.292-0.285-0.38-0.438-0.405-0.504c0.043-0.016,0.134-0.036,0.311-0.036c0.746,0,2.204,0.361,3.491,0.681
	c0.922,0.228,1.748,0.433,2.327,0.518c-0.023,0.048-0.034,0.103-0.027,0.157c0.01,0.09,0.064,0.168,0.142,0.207
	c0.166,0.083,0.347,0.131,0.506,0.173c0.429,0.112,0.443,0.153,0.43,0.281c-0.009,0.077,0.015,0.154,0.066,0.211
	c0.048,0.055,0.116,0.085,0.186,0.085h0.011c0.127-0.005,0.254-0.008,0.374-0.008c1.208,0,2.159,0.302,2.989,0.951
	c0.188,0.267,0.133,0.348,0.014,0.518c-0.129,0.183-0.366,0.523,0.063,0.982c0.068,0.072,0.146,0.109,0.218,0.132
	c0.013,0.038,0.028,0.088,0.04,0.125c0.012,0.04,0.023,0.078,0.036,0.115c-0.212,0.197-0.451,0.352-0.715,0.457l-0.102,0.043
	c-0.211,0.086-0.429,0.176-0.66,0.233c-0.055,0.012-0.108,0.033-0.161,0.053c-0.054,0.021-0.114,0.042-0.147,0.042
	c-0.065-0.002-0.13-0.004-0.193-0.004c-0.423,0-0.784,0.068-1.104,0.207c-0.176,0.076-0.352,0.156-0.526,0.236
	c-0.269,0.123-0.547,0.25-0.815,0.357c-0.106,0.023-0.247,0.087-0.299,0.254c-0.047-0.014-0.093-0.02-0.139-0.02
	c-0.229,0-0.376,0.154-0.494,0.278c-0.112,0.118-0.169,0.169-0.246,0.169c-0.027,0-0.059-0.006-0.093-0.019
	c-0.135-0.086-0.269-0.128-0.399-0.128c-0.147,0-0.361,0.057-0.545,0.324c-0.301,0.438-0.372,1.246-0.389,1.688
	c-0.023,0.663,0.04,1.32,0.168,1.716c0.001,0.005,0.003,0.009,0.004,0.014c0.25,0.656,0.226,1.442,0.201,2.203
	c-0.027,0.895-0.057,1.82,0.358,2.566c0.024,0.047,0.064,0.084,0.111,0.106l0.579,0.284c2.709,1.331,5.51,2.707,8.384,3.745
	c0.784,0.283,1.623,0.438,2.488,0.464c1.015,0.029,2.496,0.257,3.332,0.463c-0.075,0.005-0.158,0.01-0.251,0.014
	c-0.115,0.007-0.213,0.093-0.237,0.211c-0.005,0.024-0.008,0.05-0.005,0.073c-0.437-0.045-0.88-0.081-1.321-0.081
	c-0.585,0-1.105,0.064-1.591,0.196c-0.121,0.033-0.201,0.154-0.188,0.284c0.012,0.13,0.113,0.231,0.238,0.24
	c0.391,0.022,0.775,0.033,1.147,0.045c0.698,0.021,1.367,0.04,2.065,0.132c-0.001,0.007-0.001,0.016-0.002,0.022
	c0,0.02,0.002,0.039,0.006,0.058c-0.455,0.159-0.935,0.185-1.362,0.185c-0.253,0-0.514-0.011-0.767-0.021
	c-0.255-0.012-0.519-0.022-0.775-0.022c-0.808,0-1.725,0.101-2.436,0.823C299.986,98.028,299.624,98.069,299.266,98.069"/>
<path fill="#FFFFFF" d="M325.73,96.196c-2.93,0-5.16-0.875-6.628-2.601c-0.008-0.01-0.019-0.02-0.026-0.027
	c-3.145-2.759-2.688-6.308-2.244-9.741c0.323-2.506,0.657-5.096-0.437-7.315c0.05-0.073,0.088-0.073,0.104-0.073
	c0.161,0,0.44,0.229,0.664,0.414c0.201,0.165,0.391,0.321,0.574,0.397c0.03,0.012,0.062,0.018,0.093,0.018
	c0.068,0,0.136-0.029,0.184-0.083c0.744,0.703,1.976,2.143,2.219,3.364c0.101,0.508,0.014,0.901-0.266,1.204
	c-0.42,0.312-0.575,0.946-0.713,1.508c-0.082,0.337-0.159,0.656-0.275,0.847c-0.161,0.267-0.229,0.601-0.197,0.966
	c0.009,0.099-0.026,0.217-0.072,0.366c-0.058,0.2-0.132,0.448-0.149,0.788c-0.006,0.121,0.065,0.232,0.177,0.269
	c0.025,0.009,0.052,0.013,0.077,0.013c0.085,0,0.167-0.045,0.215-0.124c0.546-0.907,1.154-1.817,1.743-2.696
	c1.047-1.564,2.13-3.182,2.925-4.878c0.012-0.027,0.021-0.057,0.024-0.088c0.016-0.139,0.056-0.374,0.157-0.374
	c0.037,0,0.122,0.014,0.279,0.104c1.654,1.05,3.273,2.689,2.964,4.199c-0.617,0.271-1.273,0.503-1.911,0.729
	c-1.434,0.509-2.919,1.035-4.093,2.03c-0.007,0.007-0.013,0.013-0.019,0.018c-0.271,0.28-0.617,0.531-0.984,0.797
	c-0.811,0.587-1.729,1.253-1.887,2.381c-0.001,0.005-0.001,0.009-0.002,0.014c-0.101,1.133,0.268,2.214,1.063,3.128
	c1.366,1.569,3.573,2.272,5.155,2.272h0.03c0.077,0.008,0.15,0.012,0.22,0.012c0.357,0,0.611-0.113,0.757-0.339
	c0.266-0.413,0.029-1.024-0.112-1.392l-0.019-0.049c-0.122-0.305-0.262-0.537-0.385-0.743c-0.094-0.157-0.181-0.303-0.253-0.465
	c0.017-0.016,0.032-0.032,0.045-0.051c0.085-0.119,0.049-0.243,0.017-0.353c-0.002-0.008-0.005-0.018-0.008-0.028
	c0.005-0.005,0.01-0.011,0.014-0.017c0.045-0.061,0.063-0.136,0.052-0.209c0.387,0.516,0.883,1.255,1.178,1.747
	c0.005,0.009,0.012,0.018,0.018,0.025c0.27,0.349,0.635,0.518,1.117,0.518c0.237,0,0.479-0.039,0.713-0.076
	c0.223-0.035,0.434-0.069,0.63-0.069c0.104,0,0.194,0.011,0.275,0.029c0.019,0.005,0.038,0.007,0.057,0.007h0.012
	c0.083-0.004,0.169-0.006,0.256-0.006c1.215,0,3.197,0.447,3.383,1.646c-0.078,1.541-0.214,1.54-0.777,1.54
	c-0.125,0-0.269-0.007-0.435-0.013c-0.222-0.01-0.473-0.02-0.768-0.02c-0.222,0-0.436,0.006-0.652,0.018
	c-0.013,0.001-0.023,0.003-0.036,0.005C328.313,96.042,326.954,96.196,325.73,96.196"/>
<path fill="#FFFFFF" d="M310.491,97.02c-0.476,0-1.115-0.327-1.901-0.971c-0.023-0.02-0.05-0.033-0.077-0.043
	c-0.076-0.026-0.09-0.055-0.094-0.064c-0.053-0.112,0.052-0.417,0.128-0.639c0.085-0.248,0.165-0.483,0.161-0.7
	c0.138-1.409,0.288-3.458,0.035-5.104c0.02-0.298-0.008-0.448-0.098-0.552c-0.058-0.063-0.134-0.1-0.218-0.1
	c-0.209,0-0.343,0.199-0.587,0.561c-0.128,0.189-0.467,0.692-0.606,0.708c-0.019-0.005-0.036-0.008-0.054-0.008h-0.003
	c-0.008-0.052-0.024-0.108-0.049-0.168c-0.029-0.072-0.089-0.127-0.162-0.149c-0.022-0.007-0.047-0.011-0.07-0.011
	c-0.051,0-0.101,0.016-0.143,0.046c-0.119,0.085-0.228,0.211-0.332,0.333c-0.081,0.095-0.249,0.291-0.315,0.296
	c0.001,0-0.003-0.003-0.01-0.008c-0.208-0.313-0.512-0.313-0.614-0.313c-0.062,0-0.12,0.005-0.177,0.01
	c-0.046,0.003-0.091,0.006-0.135,0.006c-0.097,0-0.112-0.019-0.124-0.034c-0.048-0.061-0.12-0.096-0.195-0.096
	c-0.002,0-0.016,0-0.016,0c-0.154,0-0.317-0.075-0.488-0.154c-0.202-0.093-0.432-0.198-0.691-0.198c-0.139,0-0.274,0.03-0.406,0.091
	c-0.042-0.026-0.081-0.059-0.088-0.094c-0.051-0.263,0.639-0.952,1.051-1.365c0.478-0.479,0.929-0.931,1.086-1.327
	c1.925-2.691,4.075-5.859,5.313-9.451c0.147-0.193,0.315-0.501,0.499-0.916c0.049-0.06,0.093-0.112,0.136-0.134l0.06-0.03
	c0.021-0.011,0.063-0.022,0.119-0.022c0.068,0,0.121,0.018,0.146,0.031c0.173,0.103,0.355,0.206,0.541,0.313
	c1.422,0.809,3.031,1.726,2.799,3.312c-0.909,1.467-2.107,2.766-3.268,4.021c-0.291,0.315-0.592,0.641-0.884,0.966
	c-0.019,0.02-0.034,0.043-0.045,0.069c-0.357,0.795,0.051,1.554,0.411,2.223c0.236,0.439,0.461,0.856,0.484,1.259
	c-0.036,0.582,0.004,1.396,0.051,2.334c0.103,2.074,0.244,4.914-0.562,5.804C310.934,96.931,310.735,97.02,310.491,97.02"/>
<path fill="#FFFFFF" d="M392.81,101.61c-0.152,0-0.321-0.07-0.516-0.214c-0.02-0.014-0.04-0.025-0.063-0.032
	c-2.287-0.829-2.947-3.376-3.386-5.062c-0.278-1.079-0.48-1.858-1.04-1.858c-0.432,0-0.896,0.515-1.658,1.836
	c-0.423,0.733-0.979,1.376-1.655,1.907c-0.039,0.031-0.078,0.063-0.118,0.095c0.249-1.399,1.16-2.636,2.044-3.836
	c0.514-0.696,1.045-1.417,1.428-2.152c0.035-0.065,0.041-0.141,0.02-0.211c-0.208-0.664-0.669-0.838-1.005-0.965
	c-0.388-0.147-0.582-0.222-0.521-0.885c0.001-0.017,0.002-0.032,0-0.049c-0.004-0.048-0.007-0.098-0.011-0.147
	c-0.027-0.409-0.062-0.918-0.387-1.242c-0.011-0.011-0.023-0.021-0.036-0.03c-0.199-0.135-0.224-0.206-0.226-0.224
	c-0.003-0.021,0.003-0.104,0.186-0.323c0.021-0.024,0.037-0.055,0.048-0.086c0.315-0.935,0.451-1.932,0.582-2.896
	c0.168-1.235,0.342-2.512,0.894-3.681c0.047-0.101,0.028-0.224-0.048-0.305c-0.049-0.052-0.114-0.079-0.181-0.079
	c-0.037,0-0.074,0.008-0.109,0.026c-0.431,0.215-0.855,0.484-1.266,0.746c-0.934,0.595-1.814,1.156-2.798,1.156
	c-0.046,0-0.092-0.001-0.138-0.004c0.007-0.006,0.013-0.013,0.02-0.02c0.125-0.143,0.108-0.365,0.075-0.81
	c-0.019-0.239-0.055-0.725,0-0.874c3.122-1.943,3.251-2.8,3.485-4.346c0.125-0.822,0.278-1.843,0.959-3.387
	c0.042-0.099,0.025-0.211-0.043-0.29c-0.049-0.059-0.117-0.088-0.188-0.088c-0.027,0-0.055,0.004-0.082,0.014
	c-0.148,0.053-0.318,0.12-0.499,0.191c-0.662,0.261-1.486,0.587-2.138,0.587c-0.555,0-0.85-0.233-0.952-0.756
	c-0.021-0.125-0.057-0.264-0.098-0.408c-0.076-0.284-0.178-0.658-0.091-0.833h0.009c0.387,0,0.506-0.315,0.577-0.503
	c0.012-0.031,0.023-0.061,0.036-0.091c0.351-0.53,0.866-0.926,1.411-1.344c0.326-0.251,0.663-0.51,0.962-0.801
	c0.396-0.196,0.543-0.556,0.662-0.848c0.09-0.221,0.167-0.412,0.333-0.522c0.035-0.015,0.081-0.027,0.13-0.039
	c0.165-0.041,0.454-0.113,0.546-0.471c0.257-0.11,0.494-0.166,0.706-0.166c0.648,0,1.036,0.511,1.446,1.052
	c0.383,0.504,0.778,1.024,1.397,1.036h0.004c0.014,0,0.027-0.001,0.041-0.003c0.465-0.08,1.019-0.264,1.554-0.442
	c0.64-0.213,1.302-0.434,1.706-0.434c0.139,0,0.236,0.027,0.264,0.074c0.018,0.029,0.093,0.204-0.175,0.816
	c-0.002,0.003-0.003,0.007-0.005,0.01c-0.52,1.339-1.934,1.953-3.432,2.603c-1.953,0.848-3.972,1.724-3.811,4.347
	c0.006,0.092,0.055,0.172,0.13,0.217c0.039,0.021,0.081,0.032,0.124,0.032c0.005,0,0.01,0,0.016,0
	c-0.288,0.439-0.286,0.768-0.229,0.969c0.023,0.084,0.084,0.149,0.163,0.178c0.026,0.009,0.054,0.014,0.08,0.014
	c0.055,0,0.108-0.019,0.152-0.054c0.354-0.278,0.777-0.491,1.226-0.717c0.838-0.421,1.704-0.856,2.122-1.768
	c0.033-0.073,0.033-0.158-0.001-0.23c-0.033-0.073-0.097-0.126-0.172-0.145c-0.098-0.023-0.205-0.036-0.319-0.036h-0.007
	c0.781-0.409,1.565-0.72,2.206-0.72c0.339,0,0.606,0.087,0.814,0.266c-0.007,0.988,0.202,1.198,0.631,1.401
	c0.25,0.118,0.558,0.263,0.912,1.078c-0.071,0.052-0.159,0.108-0.24,0.16c-0.333,0.212-0.647,0.412-0.608,0.735
	c0.009,0.074,0.035,0.138,0.073,0.191c-0.071,0.032-0.141,0.065-0.209,0.097c-0.434,0.202-0.843,0.394-1.255,0.506
	c-0.005,0.001-0.011,0.003-0.017,0.005c-1.957,0.686-3.665,2.495-4.685,4.963c-0.027,0.065-0.028,0.141-0.002,0.208
	c0.026,0.065,0.077,0.119,0.142,0.145c0.071,0.03,0.149,0.045,0.233,0.045c0.537,0,1.263-0.6,2.402-1.58
	c0.996-0.855,2.125-1.826,2.965-2.034c0.058-0.016,0.109-0.051,0.145-0.101c0.096-0.136,0.205-0.192,0.364-0.192
	c0.19,0,0.425,0.084,0.652,0.164c0.185,0.066,0.375,0.135,0.561,0.165c0.225,0.323,0.018,1.01-0.136,1.519
	c-0.05,0.167-0.098,0.326-0.13,0.466c-0.55,1.316-0.84,2.71-1.12,4.059c-0.302,1.454-0.614,2.958-1.254,4.33
	c-0.066,0.08-0.131,0.154-0.192,0.225c-0.308,0.354-0.551,0.633-0.502,0.999c0.04,0.295,0.264,0.553,0.749,0.864
	c0.024,0.016,0.051,0.027,0.078,0.033c0.219,0.05,0.453,0.075,0.696,0.075c0.689,0,1.395-0.198,2.076-0.39
	c0.656-0.186,1.335-0.376,1.969-0.376c0.563,0,1.045,0.152,1.474,0.467c0.328,0.236,0.72,0.467,1.133,0.712
	c1.396,0.826,2.976,1.76,2.782,3.204c-0.18,0.188-0.325,0.416-0.466,0.636c-0.216,0.336-0.417,0.653-0.649,0.653
	c-0.129,0-0.292-0.083-0.485-0.247c-0.046-0.039-0.103-0.061-0.16-0.061c-0.01,0-0.021,0.001-0.03,0.003
	c-0.057,0.008-0.115,0.011-0.17,0.011c-0.875,0.001-1.374-0.968-1.902-1.994c-0.575-1.114-1.226-2.377-2.506-2.377
	c-0.846,0-1.861,0.561-3.106,1.714c-0.129,0.122-0.271,0.233-0.41,0.34c-0.357,0.278-0.727,0.565-0.758,1.002
	c-0.021,0.307,0.13,0.626,0.464,0.979c0.048,0.051,0.113,0.078,0.18,0.078c0.028,0,0.055-0.005,0.081-0.015
	c0.063-0.021,0.115-0.069,0.145-0.131c0.081,0.221,0.187,0.439,0.33,0.611c0.02,0.022,0.043,0.043,0.069,0.058
	c0.318,0.184,0.448,0.379,0.612,0.626c0.065,0.1,0.135,0.205,0.221,0.314c-0.222,0.072-0.364,0.173-0.449,0.313
	c-0.146,0.238-0.07,0.495-0.003,0.722c0.07,0.235,0.132,0.442,0.025,0.678c-0.459,0.114-0.792,0.429-1.088,0.71
	C393.317,101.382,393.078,101.61,392.81,101.61 M390.923,96.642c0.519,0.637,0.939,0.946,1.287,0.946h0.001
	c0.275,0,0.491-0.188,0.591-0.515c0.292-0.957-0.313-3.127-1.249-3.915c-0.07-0.284-0.153-0.558-0.234-0.822
	c-0.183-0.596-0.354-1.159-0.378-1.815c-0.004-0.092-0.052-0.177-0.13-0.222c-0.039-0.022-0.081-0.034-0.124-0.034
	s-0.086,0.013-0.125,0.035c-0.672,0.398-2.953,2.788-2.733,3.661c0.021,0.082,0.117,0.351,0.494,0.351
	c0.038,0,0.079-0.003,0.121-0.008c0.024-0.003,0.048-0.01,0.07-0.019c0.093-0.042,0.18-0.063,0.265-0.063
	c0.467,0,0.875,0.651,1.27,1.281C390.332,95.958,390.601,96.386,390.923,96.642 M389.118,87.599c-0.267,0-0.503,0.136-0.664,0.379
	c-0.252,0.382-0.283,0.969-0.082,1.531c0.029,0.082,0.095,0.144,0.176,0.164c0.021,0.006,0.041,0.009,0.062,0.009
	c0.062,0,0.121-0.022,0.167-0.065l1.239-1.137c0.053-0.048,0.084-0.116,0.087-0.189s-0.023-0.145-0.072-0.196
	C389.651,87.685,389.325,87.599,389.118,87.599 M392.501,83.792c-0.302,0-0.793,0.205-2.152,1.726
	c-0.056,0.063-0.079,0.15-0.063,0.234s0.069,0.155,0.145,0.191c1.075,0.513,1.005,0.773,0.898,1.168
	c-0.101,0.373-0.238,0.884,0.333,1.525c0.049,0.056,0.116,0.085,0.185,0.085c0.021,0,0.041-0.003,0.062-0.008
	c0.089-0.022,0.16-0.094,0.185-0.188c0.09-0.344,0.193-0.707,0.304-1.093c0.521-1.832,0.825-2.978,0.497-3.438
	C392.801,83.864,392.661,83.792,392.501,83.792 M380.992,101.141c-2.26,0.001-2.797-8.302-3.118-13.263
	c-0.139-2.148-0.249-3.846-0.443-4.647c-0.298-1.93-0.47-11.377,0.813-12.963c0.139-0.17,0.239-0.17,0.272-0.17
	c0.189,0,0.734,0.239,1.698,2.457c0.12,0.355-0.142,1.64-0.373,2.772c-0.426,2.085-0.656,3.386-0.271,3.887
	c0.106,0.138,0.253,0.211,0.423,0.211c0.062,0,0.127-0.01,0.193-0.029c0.08-0.022,0.145-0.086,0.173-0.168
	c0.158-0.466,0.288-0.821,0.395-1.093c-0.047,0.285-0.114,0.653-0.212,1.129c-0.01,0.045-0.008,0.093,0.007,0.139
	c0.19,0.613,0.505,1.117,0.807,1.605c0.323,0.521,0.628,1.011,0.785,1.615c0.006,0.022,0.015,0.044,0.025,0.063
	c0.081,0.147,0.152,0.261,0.222,0.342c0,0,0,0,0-0.001c-0.021-0.005-0.04-0.008-0.059-0.008c-0.09,0-0.174,0.051-0.22,0.135
	c-0.056,0.101-0.042,0.229,0.034,0.314c0.227,0.254,0.168,0.361-0.071,0.695c-0.034,0.048-0.068,0.096-0.103,0.145
	c-0.026,0.041-0.041,0.089-0.045,0.141c-0.009,0.181-0.039,0.247-0.051,0.265h-0.004c-0.078,0-0.225-0.068-0.354-0.128
	c-0.193-0.09-0.393-0.182-0.594-0.182c-0.046,0-0.091,0.005-0.134,0.015c-0.042,0.01-0.086,0.015-0.132,0.015
	c-0.14,0-0.294-0.046-0.46-0.137c-0.082-0.045-0.163-0.068-0.241-0.068c-0.123,0-0.236,0.058-0.317,0.159
	c-0.353,0.438-0.169,1.829,0.299,4.682c0.206,1.258,0.401,2.446,0.382,2.96c-0.1,1.007,0.299,2.531,0.722,4.147
	c0.526,2.009,1.122,4.285,0.439,4.851C381.31,101.102,381.145,101.141,380.992,101.141"/>
<path fill="#FFFFFF" d="M375.624,89.25c-1.425-0.005-2.197-0.234-2.459-1.432c-0.007-0.034-0.021-0.067-0.041-0.095
	c-0.141-0.206-0.273-0.354-0.391-0.486c-0.276-0.309-0.419-0.469-0.368-1.099c0.613-1.096,0.273-2.225-0.027-3.224
	c-0.036-0.122-0.072-0.241-0.106-0.36c-0.067-0.234,0.044-0.488,0.253-0.579c0.128-0.057,0.252-0.084,0.369-0.084
	c0.313,0,0.6,0.203,0.85,0.603c0.048,0.076,0.128,0.12,0.213,0.12c0.013,0,0.026-0.001,0.04-0.003
	c0.099-0.016,0.179-0.092,0.205-0.193l0.548-2.119c-0.236,4.008,0.629,5.671,1.194,6.758
	C376.371,87.957,376.521,88.245,375.624,89.25"/>
</svg>
